<svg width="152" height="36" fill="none" xmlns="http://www.w3.org/2000/svg"><path d="M18.273 36c9.999 0 17.091-5.852 17.091-14.262h-9.16c-.543 4.082-3.055 6.492-7.93 6.492-5.813 0-8.719-3.59-8.719-10.23 0-6.64 2.906-10.23 8.718-10.23 4.975 0 7.388 2.607 7.93 6.197h9.161C35.364 5.705 28.074 0 18.274 0 6.943 0 0 7.328 0 18s6.945 18 18.273 18ZM69.074 35.508V.492H60.01v21.246L47.402.492H37.354v35.016h9.063V14.262l12.61 21.246h10.047ZM89.353 36c9.999 0 17.091-5.852 17.091-14.262h-9.16c-.543 4.082-3.055 6.492-7.93 6.492-5.813 0-8.719-3.59-8.719-10.23 0-6.64 2.906-10.23 8.718-10.23 4.975 0 7.388 2.607 7.93 6.197h9.161C106.444 5.705 99.154 0 89.354 0 78.023 0 71.08 7.328 71.08 18s6.945 18 18.273 18Z" fill="#fff"/><path d="M130.17 26.146v-4.27h-13.455c.139-1.978 1.321-3.263 3.581-4.096l3.65-1.32c4.068-1.457 6.224-3.922 6.224-7.532 0-4.618-3.268-7.846-9.109-7.846-6.015 0-9.109 3.228-9.109 8.748h4.937c.347-3.09 1.668-4.478 4.206-4.478 2.191 0 3.755 1.284 3.755 3.437 0 1.909-.904 3.228-3.337 4.13l-3.373 1.216c-4.798 1.77-6.745 4.409-6.745 9.685v2.326h18.775ZM148.801 26.146v-5.762H152v-4.305h-3.199V1.429h-6.327l-10.639 13.956v4.999h11.821v5.762h5.145Zm-5.145-10.067h-7.162l7.162-9.477v9.477Z" fill="#FD7E14"/></svg>